<svg xmlns="http://www.w3.org/2000/svg" version="1.1" width="1024" height="1024">
<path d="M0 0 C337.92 0 675.84 0 1024 0 C1024 337.92 1024 675.84 1024 1024 C686.08 1024 348.16 1024 0 1024 C0 686.08 0 348.16 0 0 Z " fill="#00051F" transform="translate(0,0)" clip-path="url(#circleClip)" />
<path d="M0 0 C1.37079712 0.00373123 1.37079712 0.00373123 2.76928711 0.00753784 C70.5434372 0.29123193 136.44248292 22.64612447 189.375 65.3125 C190.30183594 66.04726563 191.22867187 66.78203125 192.18359375 67.5390625 C206.99304331 79.42863477 221.47048326 92.69663566 233.25390625 107.63671875 C235.45162214 110.4091596 237.75130947 113.071716 240.0625 115.75 C256.07951283 135.02008055 268.67294857 156.71865677 279.375 179.3125 C279.69388184 179.9715332 280.01276367 180.63056641 280.34130859 181.30957031 C313.93208468 251.09428248 316.38465411 337.44516398 291.375 410.3125 C275.47509901 454.75268777 251.08523674 494.31445866 218.375 528.3125 C217.87613281 528.83328125 217.37726562 529.3540625 216.86328125 529.890625 C210.92123893 536.06179492 204.834112 541.80483169 198.10546875 547.12890625 C196.32405585 548.55352686 194.57412964 550.01871073 192.86328125 551.52734375 C138.7696435 598.98760111 59.93779586 623.81042867 -11.625 620.3125 C-12.65705566 620.26319336 -13.68911133 620.21388672 -14.75244141 620.16308594 C-40.10095615 618.82432328 -64.31105063 614.57185556 -88.625 607.3125 C-89.5423291 607.04066895 -90.4596582 606.76883789 -91.40478516 606.48876953 C-128.28230924 595.37583415 -163.48793316 576.28258738 -193.06689453 551.61035156 C-194.64584239 550.29513896 -196.24208247 549.00319489 -197.83984375 547.7109375 C-205.43876132 541.46964847 -212.46382364 534.67786523 -219.4375 527.75 C-220.30898682 526.88777832 -221.18047363 526.02555664 -222.07836914 525.13720703 C-230.30795414 516.86769159 -237.58449972 507.89964127 -244.5625 498.5625 C-245.06628174 497.88840088 -245.57006348 497.21430176 -246.08911133 496.51977539 C-258.26622274 480.08498632 -268.83520155 462.77818215 -277.625 444.3125 C-277.98062012 443.57999023 -278.33624023 442.84748047 -278.70263672 442.09277344 C-299.06364153 399.96841647 -307.84635422 354.13943768 -307.875 307.625 C-307.87567474 306.63416412 -307.87634949 305.64332825 -307.87704468 304.62246704 C-307.83060836 261.5135035 -299.70484445 219.62346613 -281.625 180.3125 C-281.02582764 179.00659912 -281.02582764 179.00659912 -280.41455078 177.67431641 C-269.24778133 153.68017229 -254.61340387 131.02497265 -237.16503906 111.12353516 C-235.20635534 108.82018768 -233.33191953 106.45334741 -231.44140625 104.09375 C-226.69934545 98.2819811 -221.57402203 92.96454536 -216.25 87.6875 C-215.38117188 86.8109375 -214.51234375 85.934375 -213.6171875 85.03125 C-207.59834932 79.03021903 -201.27646287 73.59716997 -194.625 68.3125 C-193.47890704 67.37169092 -192.33410067 66.42930899 -191.19140625 65.484375 C-174.95057117 52.39033371 -157.13997005 41.85232669 -138.625 32.3125 C-137.76293945 31.86777344 -136.90087891 31.42304688 -136.01269531 30.96484375 C-121.99543577 23.82025349 -107.55247144 18.25211719 -92.625 13.3125 C-91.86251953 13.05629883 -91.10003906 12.80009766 -90.31445312 12.53613281 C-79.69341489 9.04066436 -68.73360219 7.09927384 -57.75 5.125 C-57.05182159 4.9980777 -56.35364319 4.8711554 -55.63430786 4.74038696 C-37.1374387 1.41098855 -18.78924253 -0.08271586 0 0 Z " fill="#000520" transform="translate(512.625,201.6875)" />
<path d="M0 0 C1.37079712 0.00373123 1.37079712 0.00373123 2.76928711 0.00753784 C70.5434372 0.29123193 136.44248292 22.64612447 189.375 65.3125 C190.30183594 66.04726563 191.22867187 66.78203125 192.18359375 67.5390625 C206.99304331 79.42863477 221.47048326 92.69663566 233.25390625 107.63671875 C235.45162214 110.4091596 237.75130947 113.071716 240.0625 115.75 C256.07951283 135.02008055 268.67294857 156.71865677 279.375 179.3125 C279.69388184 179.9715332 280.01276367 180.63056641 280.34130859 181.30957031 C313.93208468 251.09428248 316.38465411 337.44516398 291.375 410.3125 C275.47509901 454.75268777 251.08523674 494.31445866 218.375 528.3125 C217.87613281 528.83328125 217.37726562 529.3540625 216.86328125 529.890625 C210.92123893 536.06179492 204.834112 541.80483169 198.10546875 547.12890625 C196.32405585 548.55352686 194.57412964 550.01871073 192.86328125 551.52734375 C138.7696435 598.98760111 59.93779586 623.81042867 -11.625 620.3125 C-12.65705566 620.26319336 -13.68911133 620.21388672 -14.75244141 620.16308594 C-40.10095615 618.82432328 -64.31105063 614.57185556 -88.625 607.3125 C-89.5423291 607.04066895 -90.4596582 606.76883789 -91.40478516 606.48876953 C-128.28230924 595.37583415 -163.48793316 576.28258738 -193.06689453 551.61035156 C-194.64584239 550.29513896 -196.24208247 549.00319489 -197.83984375 547.7109375 C-205.43876132 541.46964847 -212.46382364 534.67786523 -219.4375 527.75 C-220.30898682 526.88777832 -221.18047363 526.02555664 -222.07836914 525.13720703 C-230.30795414 516.86769159 -237.58449972 507.89964127 -244.5625 498.5625 C-245.06628174 497.88840088 -245.57006348 497.21430176 -246.08911133 496.51977539 C-258.26622274 480.08498632 -268.83520155 462.77818215 -277.625 444.3125 C-277.98062012 443.57999023 -278.33624023 442.84748047 -278.70263672 442.09277344 C-299.06364153 399.96841647 -307.84635422 354.13943768 -307.875 307.625 C-307.87567474 306.63416412 -307.87634949 305.64332825 -307.87704468 304.62246704 C-307.83060836 261.5135035 -299.70484445 219.62346613 -281.625 180.3125 C-281.02582764 179.00659912 -281.02582764 179.00659912 -280.41455078 177.67431641 C-269.24778133 153.68017229 -254.61340387 131.02497265 -237.16503906 111.12353516 C-235.20635534 108.82018768 -233.33191953 106.45334741 -231.44140625 104.09375 C-226.69934545 98.2819811 -221.57402203 92.96454536 -216.25 87.6875 C-215.38117188 86.8109375 -214.51234375 85.934375 -213.6171875 85.03125 C-207.59834932 79.03021903 -201.27646287 73.59716997 -194.625 68.3125 C-193.47890704 67.37169092 -192.33410067 66.42930899 -191.19140625 65.484375 C-174.95057117 52.39033371 -157.13997005 41.85232669 -138.625 32.3125 C-137.76293945 31.86777344 -136.90087891 31.42304688 -136.01269531 30.96484375 C-121.99543577 23.82025349 -107.55247144 18.25211719 -92.625 13.3125 C-91.86251953 13.05629883 -91.10003906 12.80009766 -90.31445312 12.53613281 C-79.69341489 9.04066436 -68.73360219 7.09927384 -57.75 5.125 C-57.05182159 4.9980777 -56.35364319 4.8711554 -55.63430786 4.74038696 C-37.1374387 1.41098855 -18.78924253 -0.08271586 0 0 Z M-69.625 40.5 C-70.68058105 40.79334229 -71.73616211 41.08668457 -72.82373047 41.38891602 C-89.66340357 46.19115637 -106.20555771 51.90072239 -121.63232422 60.24707031 C-123.8135122 61.41329236 -126.01527038 62.53263615 -128.22265625 63.6484375 C-150.85579004 75.16716799 -171.44171594 89.55481339 -189.625 107.3125 C-190.69548584 108.35229004 -190.69548584 108.35229004 -191.78759766 109.41308594 C-200.58421524 117.98623287 -209.20009675 126.5031766 -216.625 136.3125 C-217.32109375 137.19164062 -218.0171875 138.07078125 -218.734375 138.9765625 C-264.48263135 197.86527546 -282.86670377 272.46146477 -273.73260498 346.09301758 C-267.35091821 395.29154945 -247.46796871 440.83020371 -217.625 480.3125 C-217.1820459 480.90208496 -216.7390918 481.49166992 -216.28271484 482.09912109 C-211.08569545 488.98667146 -205.78355712 495.44314078 -199.54296875 501.4296875 C-197.90793832 503.03474792 -196.47745867 504.64177172 -195.0625 506.4375 C-192.57179052 509.3752599 -189.95314893 511.73557451 -187.0234375 514.21875 C-184.72812671 516.22247408 -182.53510626 518.31114822 -180.33984375 520.4230957 C-151.36655972 548.02157249 -114.3479914 565.32293495 -76.75 577.625 C-75.27213013 578.11359497 -75.27213013 578.11359497 -73.7644043 578.61206055 C-60.24360321 582.92315435 -46.42802718 584.9362432 -32.375 586.5 C-31.60410034 586.58621613 -30.83320068 586.67243225 -30.03894043 586.76126099 C42.68207383 594.7865242 115.82911109 571.77243548 172.83203125 526.6015625 C180.55774435 520.29690617 187.617552 513.26955814 194.6875 506.25 C195.60692383 505.34000244 196.52634766 504.43000488 197.47363281 503.49243164 C214.61534883 486.26863115 228.01888457 466.13187295 240.375 445.3125 C240.84067383 444.53374512 241.30634766 443.75499023 241.78613281 442.95263672 C252.92147697 424.19051043 259.86826916 404.36887508 265.375 383.3125 C265.72473877 381.97904541 265.72473877 381.97904541 266.08154297 380.61865234 C275.23085639 344.72726045 278.70011872 306.90498827 272.375 270.3125 C272.17632324 269.12930176 271.97764648 267.94610352 271.77294922 266.72705078 C263.46259668 218.06635729 245.22242012 173.78886829 213.97998047 135.29199219 C212.57753532 133.56229562 211.19485912 131.8191042 209.81640625 130.0703125 C197.01701539 114.30146296 181.9837332 99.03911346 165.375 87.3125 C164.76027832 86.86938477 164.14555664 86.42626953 163.51220703 85.96972656 C154.06839953 79.17776865 144.26903644 73.15241363 134.18457031 67.36572266 C131.88137496 66.02519584 129.63080957 64.60598364 127.375 63.1875 C112.12460576 54.14835905 95.61353799 48.66583408 78.78710938 43.38427734 C76.76909648 42.75039951 74.75359892 42.10824957 72.74414062 41.44775391 C47.55794139 33.19203562 19.92032888 32.93477276 -6.3125 32.8125 C-7.38740692 32.80205658 -8.46231384 32.79161316 -9.5697937 32.78085327 C-29.9467871 32.62605285 -49.98451483 34.90902438 -69.625 40.5 Z " fill="#FDFDFD" transform="translate(512.625,201.6875)" />
<path d="M0 0 C5.78289991 3.58894885 8.64114741 9.58543225 10.57543945 15.96191406 C13.6284523 30.73803838 11.69666663 47.92777551 7.03125 62.16796875 C6.65742187 63.31007813 6.28359375 64.4521875 5.8984375 65.62890625 C-0.77590373 84.23750001 -11.61893996 100.14895717 -28.28125 110.98046875 C-29.06830322 111.49689941 -29.85535645 112.01333008 -30.66625977 112.54541016 C-40.96265486 119.21411828 -51.67942585 125.00253503 -62.61328125 130.55078125 C-88.15692961 143.52920068 -110.45015121 157.35464115 -119.99609375 185.71875 C-125.38340872 204.82316413 -124.43261091 223.67343682 -114.84375 241.29296875 C-113.8908884 242.92118328 -112.93324547 244.54661861 -111.96875 246.16796875 C-109.31248112 251.09395992 -108.00433565 255.60066774 -108.96875 261.16796875 C-110.59009237 265.91618569 -113.26093539 269.22924794 -117.84765625 271.5078125 C-123.33316868 273.21508985 -129.5473373 273.24878151 -134.78125 270.73046875 C-147.89796968 261.66404256 -153.72875705 237.57923954 -156.56518555 222.98291016 C-157.31340088 217.76396111 -157.2556807 212.55559406 -157.21875 207.29296875 C-157.22648437 206.19855469 -157.23421875 205.10414063 -157.2421875 203.9765625 C-157.18516719 179.88547942 -148.24119268 157.62441891 -132.96875 139.16796875 C-131.99808594 137.96914063 -131.99808594 137.96914063 -131.0078125 136.74609375 C-115.3139886 118.16973077 -92.15586528 106.87558321 -70.8671875 96.0546875 C-55.64663039 88.3131568 -55.64663039 88.3131568 -41.96875 78.16796875 C-41.15535156 77.48734375 -40.34195313 76.80671875 -39.50390625 76.10546875 C-29.08381767 66.67364148 -23.80031678 53.03434479 -22.96875 39.16796875 C-22.65905273 30.58742844 -22.65905273 30.58742844 -23.96875 22.16796875 C-24.43781599 16.64683134 -24.74116381 11.80192105 -22.34375 6.73046875 C-15.7498552 -0.38399669 -9.5886612 -4.05235086 0 0 Z " fill="#FDFDFD" transform="translate(598.96875,296.83203125)" />
<path d="M0 0 C3.85454891 3.26798712 6.65121329 6.25500333 7.30078125 11.3671875 C7.33068126 17.76579038 6.74355945 22.20645667 2.0703125 26.96484375 C-2.30766393 29.86678487 -6.89103204 30.86890934 -11.9375 32.1875 C-37.94998565 39.41649137 -64.75758576 49.80932315 -79.01171875 74.29296875 C-85.45600907 86.02237234 -88.12687236 98.47686767 -90.94830322 111.43374634 C-98.95842417 148.19066901 -116.58689712 175.22622645 -148.46484375 195.765625 C-164.82572626 206.15264715 -164.82572626 206.15264715 -176 205 C-180.81851362 202.63454786 -184.65822204 199.24263006 -186.75 194.1875 C-187.74418605 185.48837209 -187.74418605 185.48837209 -185.4375 180.875 C-180.72943006 175.32189187 -175.74856685 171.76097343 -169.375 168.25 C-151.07804566 158.15639676 -137.59885715 144.76746322 -130 125 C-128.64478347 120.22983101 -127.59680365 115.41105021 -126.5625 110.5625 C-125.96722207 107.89118977 -125.35973436 105.22273119 -124.75 102.5546875 C-124.60119888 101.90112778 -124.45239777 101.24756805 -124.29908752 100.57420349 C-117.22574807 69.72842918 -103.5901589 40.74929428 -76.19091797 22.81591797 C-58.28768464 11.74888683 -20.48700492 -10.84606143 0 0 Z " fill="#FDFDFD" transform="translate(703,422)" />
<path d="M0 0 C24.37261693 12.23853111 41.18691746 32.13541095 50 58 C51.96430334 63.98991264 53.88621732 69.99309305 55.75366211 76.01391602 C63.01693972 99.23153125 75.92754166 115.35334006 97.27734375 127.6015625 C107.13942378 132.66702111 117.10254795 135.83836187 127.94677734 138.00024414 C135.41918914 139.63695065 140.49776738 143.12243248 145.5 148.875 C147.37878202 152.7891292 147.84381189 155.73832377 147 160 C143.81027968 166.14316506 139.49594191 169.76493946 133 172 C109.08532929 175.52778527 80.02681972 157.7186785 61.625 144.0625 C40.13448415 127.64283799 29.1254302 107.98348281 21.5 82.4375 C15.55961822 62.54084554 7.94619308 44.24238362 -10.69140625 33.21484375 C-20.31539657 28.15044275 -30.25129446 25.87149605 -40.86547852 23.875 C-49.02817731 22.26781497 -55.09757053 20.16508922 -60 13 C-61.85602244 9.28795513 -61.44875601 5.0512695 -61 1 C-50.46105372 -20.07789256 -16.4882085 -7.75915694 0 0 Z " fill="#FDFDFD" transform="translate(346,547)" />
<path d="M0 0 C4.37902595 1.92062542 7.13854504 4.50604405 9.29296875 8.8515625 C13.20947065 20.75253512 7.06967903 31.89637073 1.83203125 42.32568359 C-14.61730646 74.24618238 -38.73197554 93.40790401 -69.578125 110.44140625 C-90.37734223 121.63483979 -90.37734223 121.63483979 -109 136 C-109.61101563 136.53238281 -110.22203125 137.06476563 -110.8515625 137.61328125 C-125.66582126 151.24375221 -135.57027053 172.1591922 -139.4375 191.6875 C-140.8106322 197.8165328 -142.29185564 201.54574417 -147 205.8125 C-151.52932964 208.50178947 -156.87205917 208.73976851 -162 208 C-166.39882866 206.23438019 -169.22160821 204.28713284 -171.69140625 200.203125 C-177.31574102 186.43609661 -169.78155166 169.46718633 -164.48120117 156.61157227 C-147.72665968 117.73740513 -116.08978723 96.38680408 -80.25341797 76.61132812 C-52.20526952 61.10339192 -32.68038378 42.66347374 -22.03515625 11.69921875 C-17.7896154 0.62877073 -11.25299358 -1.37473599 0 0 Z " fill="#FDFDFD" transform="translate(723,530)" />
<path d="M0 0 C3.70813875 3.24233807 6.08181134 6.79024594 7.02734375 11.66015625 C7.32751495 17.33436018 5.89545245 20.8249549 2.5859375 25.38671875 C-2.02185013 29.55566946 -4.80714418 30.46744161 -10.9140625 31.07421875 C-32.08615321 33.67082021 -51.11804316 43.95383604 -67.4140625 57.38671875 C-68.28417969 58.08152344 -69.15429688 58.77632813 -70.05078125 59.4921875 C-84.19454216 71.3833433 -92.25910934 88.89472267 -99.4140625 105.57421875 C-110.18984773 130.46724189 -127.6788484 149.16287678 -152.9765625 159.47509766 C-165.26849589 164.07226104 -182.04474884 167.85836404 -194.6015625 162.63671875 C-199.71010109 159.86351209 -204.13840469 156.89620608 -206.4140625 151.38671875 C-207.41112624 145.04276376 -206.53685832 140.46782725 -203.09375 135.078125 C-200.10574671 132.06927518 -197.24191543 130.51228398 -192.95117188 130.2175293 C-190.03850327 130.23525814 -187.13692227 130.33329051 -184.2265625 130.44921875 C-169.76512668 130.70189906 -161.75047306 127.39023453 -150.4140625 118.38671875 C-148.83625 117.24203125 -148.83625 117.24203125 -147.2265625 116.07421875 C-139.59622654 108.78300883 -134.84958495 99.81165818 -130.51382446 90.30493164 C-122.21778805 72.18802081 -113.10923989 55.01658184 -99.4140625 40.38671875 C-98.62773437 39.52046875 -97.84140625 38.65421875 -97.03125 37.76171875 C-79.02721638 18.74755783 -26.64239147 -16.57878072 0 0 Z " fill="#FDFDFD" transform="translate(496.4140625,325.61328125)" />
<path d="M0 0 C0.66 0.66 1.32 1.32 2 2 C-0.36292656 4.52588702 -1.66462511 5.88820837 -5 7 C-5.33 7.66 -5.66 8.32 -6 9 C-7.55200653 9.87084811 -9.1424036 10.67412952 -10.75 11.4375 C-13.61733364 12.81791634 -16.29727293 14.18579558 -19 15.875 C-19.99 16.431875 -19.99 16.431875 -21 17 C-21.66 16.67 -22.32 16.34 -23 16 C-22.48091064 15.65743164 -21.96182129 15.31486328 -21.42700195 14.96191406 C-19.05385208 13.39375568 -16.68316433 11.82191312 -14.3125 10.25 C-13.49587891 9.71117187 -12.67925781 9.17234375 -11.83789062 8.6171875 C-7.74522462 5.89978983 -3.76912486 3.16268725 0 0 Z " fill="#07080F" transform="translate(568,607)" />
<path d="M0 0 C3.15710472 2.44421011 3.96786933 3.86933528 4.9375 7.8125 C5.27786712 12.16433672 4.13333517 15.17470935 2 19 C-0.1875 21.4375 -0.1875 21.4375 -2 23 C-2.66 22.67 -3.32 22.34 -4 22 C-2.09570312 19.75390625 -2.09570312 19.75390625 -0.19140625 17.5078125 C2.60174741 13.97287049 2.3438807 10.31850183 2 6 C1.10202887 2.63178728 1.10202887 2.63178728 0 0 Z M-6 23 C-5.34 23.33 -4.68 23.66 -4 24 C-4.99 25.485 -4.99 25.485 -6 27 C-7.32 26.67 -8.64 26.34 -10 26 C-8.68 25.01 -7.36 24.02 -6 23 Z " fill="#030307" transform="translate(490,693)" />
<path d="M0 0 C-1.45016194 3.63328617 -3.22192317 5.11741577 -6.5 7.1875 C-7.69109375 7.95126953 -7.69109375 7.95126953 -8.90625 8.73046875 C-11 10 -11 10 -13 11 C-12.67440623 7.99656363 -12.11191572 7.09711205 -9.78515625 5.078125 C-8.88667969 4.47484375 -7.98820312 3.8715625 -7.0625 3.25 C-6.16660156 2.63640625 -5.27070313 2.0228125 -4.34765625 1.390625 C-2 0 -2 0 0 0 Z " fill="#0A0B15" transform="translate(443,373)" />
<path d="M0 0 C3.66786393 1.50349377 5.68910393 3.63728792 8.25 6.625 C8.95640625 7.44226563 9.6628125 8.25953125 10.390625 9.1015625 C10.92171875 9.72804688 11.4528125 10.35453125 12 11 C8.38834178 11 7.6289281 10.38246609 5 8 C3.97695052 6.34738161 2.97383946 4.68208635 2 3 C1.34 2.67 0.68 2.34 0 2 C0 1.34 0 0.68 0 0 Z " fill="#06070F" transform="translate(343,586)" />
<path d="M0 0 C-1 3 -1 3 -2.765625 4.1796875 C-5.25718223 5.09442005 -7.10616836 5.20275975 -9.75 5.125 C-10.54921875 5.10695313 -11.3484375 5.08890625 -12.171875 5.0703125 C-12.77515625 5.04710937 -13.3784375 5.02390625 -14 5 C-11.81403638 2.81403638 -10.92654486 2.57768169 -8 1.9375 C-5.27549455 1.33149787 -2.73018549 0 0 0 Z " fill="#02030D" transform="translate(498,353)" />
<path d="M0 0 C3.39815137 1.13271712 4.28644916 2.1909314 6.5625 4.875 C7.16191406 5.57367187 7.76132812 6.27234375 8.37890625 6.9921875 C10 9 10 9 12 12 C11.01 12.495 11.01 12.495 10 13 C9.52949219 12.45730469 9.05898438 11.91460938 8.57421875 11.35546875 C7.95160156 10.64003906 7.32898438 9.92460938 6.6875 9.1875 C6.07261719 8.47980469 5.45773437 7.77210938 4.82421875 7.04296875 C3.06723259 5.01755954 3.06723259 5.01755954 1.26953125 3.36328125 C0 2 0 2 0 0 Z " fill="#06060C" transform="translate(306,694)" />
<path d="M0 0 C0.66 0 1.32 0 2 0 C1.34 1.65 0.68 3.3 0 5 C-0.66 5 -1.32 5 -2 5 C-2.28875 5.598125 -2.5775 6.19625 -2.875 6.8125 C-4 9 -4 9 -6 12 C-6.66 11.67 -7.32 11.34 -8 11 C-6.71632558 9.16106176 -5.42283239 7.32897375 -4.125 5.5 C-3.04605469 3.96859375 -3.04605469 3.96859375 -1.9453125 2.40625 C-1.30335938 1.6121875 -0.66140625 0.818125 0 0 Z " fill="#04050C" transform="translate(771,679)" />
<path d="M0 0 C4.12543646 2.94674033 7.75610863 6.39468009 10 11 C9.67 11.99 9.34 12.98 9 14 C7.49412261 12.04594482 5.99521356 10.08718716 4.5 8.125 C4.07074219 7.56941406 3.64148438 7.01382812 3.19921875 6.44140625 C0 2.2265625 0 2.2265625 0 0 Z " fill="#0B0B10" transform="translate(749,312)" />
<path d="M0 0 C3.63559661 3.43361902 6.36113346 6.7973607 9 11 C8.01 11 7.02 11 6 11 C4.39453125 9.35546875 4.39453125 9.35546875 2.8125 7.1875 C2.28269531 6.47980469 1.75289063 5.77210938 1.20703125 5.04296875 C0 3 0 3 0 0 Z " fill="#0E0F15" transform="translate(410,643)" />
<path d="M0 0 C0.33 0.66 0.66 1.32 1 2 C0.34 2 -0.32 2 -1 2 C-1.33 2.99 -1.66 3.98 -2 5 C-5.0625 6.1875 -5.0625 6.1875 -8 7 C-8.66 6.34 -9.32 5.68 -10 5 C-6.7 3.35 -3.4 1.7 0 0 Z " fill="#16171F" transform="translate(541,424)" />
<path d="M0 0 C0.66 0.33 1.32 0.66 2 1 C0.92598892 3.91517292 0.22189824 5.77810176 -2 8 C-2.99 7.67 -3.98 7.34 -5 7 C-3.35 4.69 -1.7 2.38 0 0 Z " fill="#0C0D16" transform="translate(415,396)" />
<path d="M0 0 C0.99 0 1.98 0 3 0 C2.34 1.32 1.68 2.64 1 4 C0.34 4 -0.32 4 -1 4 C-1.66 5.65 -2.32 7.3 -3 9 C-3.66 8.67 -4.32 8.34 -5 8 C-4.24266726 6.6589523 -3.46867264 5.32730219 -2.6875 4 C-2.25824219 3.2575 -1.82898438 2.515 -1.38671875 1.75 C-0.70029297 0.88375 -0.70029297 0.88375 0 0 Z " fill="#06080F" transform="translate(602,678)" />
<path d="M0 0 C0.66 0.33 1.32 0.66 2 1 C1.75 2.875 1.75 2.875 1 5 C-1.0625 6.25 -1.0625 6.25 -3 7 C-3 3.48283697 -2.17554415 2.62878252 0 0 Z " fill="#0B0C18" transform="translate(590,585)" />
<path d="M0 0 C-1.45255699 3.82946843 -3.42895561 5.12050295 -7 7 C-7 6.01 -7 5.02 -7 4 C-2.65714286 0 -2.65714286 0 0 0 Z " fill="#0D0D15" transform="translate(509,443)" />
<path d="M0 0 C2.64752004 2.57784846 4.94432065 4.91648098 7 8 C6.67 8.99 6.34 9.98 6 11 C4.9944239 9.54550599 3.99569565 8.08627557 3 6.625 C2.443125 5.81289063 1.88625 5.00078125 1.3125 4.1640625 C0 2 0 2 0 0 Z " fill="#0E0E13" transform="translate(762,329)" />
<path d="M0 0 C0 0.99 0 1.98 0 3 C-0.66 2.67 -1.32 2.34 -2 2 C-1.34 1.34 -0.68 0.68 0 0 Z M-4 3 C-3.34 3.33 -2.68 3.66 -2 4 C-2.99 5.485 -2.99 5.485 -4 7 C-5.32 6.67 -6.64 6.34 -8 6 C-6.68 5.01 -5.36 4.02 -4 3 Z " fill="#08080F" transform="translate(488,713)" />
<path d="M0 0 C0.66 0.33 1.32 0.66 2 1 C1.0479279 2.00596297 0.08812654 3.00461563 -0.875 4 C-1.40867187 4.556875 -1.94234375 5.11375 -2.4921875 5.6875 C-4 7 -4 7 -6 7 C-4.60667426 3.63279613 -3.0210714 2.0140476 0 0 Z " fill="#03040D" transform="translate(353,284)" />
<path d="M0 0 C0.99 0.33 1.98 0.66 3 1 C-1.75 5 -1.75 5 -4 5 C-2.25 1.125 -2.25 1.125 0 0 Z " fill="#02030E" transform="translate(648,471)" />
<defs><clipPath id="circleClip"><circle cx="512" cy="512" r="512" /></clipPath></defs></svg>